ply
format ascii 1.0
element vertex 50
property float x
property float y
property float z
element edge 50
property int vertex1
property int vertex2
end_header
116 478 0
132 448 0
136 425 0
251 380 0
80 276 0
41 221 0
465 476 0
23 206 0
159 260 0
69 153 0
193 364 0
281 327 0
72 99 0
318 357 0
336 476 0
337 377 0
321 327 0
85 223 0
81 120 0
342 319 0
271 286 0
330 301 0
498 452 0
443 315 0
119 222 0
453 316 0
358 309 0
330 286 0
435 273 0
229 64 0
490 378 0
458 280 0
471 265 0
327 48 0
350 258 0
363 125 0
287 12 0
398 224 0
405 259 0
375 186 0
386 142 0
471 180 0
494 112 0
439 18 0
323 13 0
495 449 0
225 5 0
508 311 0
510 114 0
497 346 0
0 1
1 2
2 3
3 4
4 5
5 6
6 7
7 8
8 9
9 10
10 11
11 12
12 13
13 14
14 15
15 16
16 17
17 18
18 19
19 20
20 21
21 22
22 23
23 24
24 25
25 26
26 27
27 28
28 29
29 30
30 31
31 32
32 33
33 34
34 35
35 36
36 37
37 38
38 39
39 40
40 41
41 42
42 43
43 44
44 45
45 46
46 47
47 48
48 49
49 0
